<?xml version="1.0" standalone="no"?>
<!DOCTYPE svg PUBLIC "-//W3C//DTD SVG 20010904//EN"
 "http://www.w3.org/TR/2001/REC-SVG-20010904/DTD/svg10.dtd">
<svg version="1.0" xmlns="http://www.w3.org/2000/svg"
 width="700.000000pt" height="700.000000pt" viewBox="0 0 700.000000 700.000000"
 preserveAspectRatio="xMidYMid meet">
<metadata>
Created by potrace 1.14, written by Peter Selinger 2001-2017
</metadata>
<g transform="translate(0.000000,700.000000) scale(0.100000,-0.100000)"
fill="#000000" stroke="none">
<path d="M1003 5702 l-302 -2 46 -98 c25 -53 60 -129 78 -168 18 -39 49 -104
68 -145 64 -135 129 -272 189 -403 32 -71 81 -174 107 -230 27 -56 58 -121 69
-146 11 -25 48 -103 81 -173 34 -71 61 -130 61 -132 0 -1 26 -58 59 -126 116
-245 171 -362 171 -365 0 -1 27 -60 61 -131 58 -121 79 -166 148 -315 16 -35
49 -106 74 -158 25 -52 61 -129 80 -170 19 -41 54 -115 77 -165 93 -198 113
-242 140 -300 30 -66 58 -126 178 -380 44 -93 95 -204 115 -245 19 -41 54
-115 77 -165 23 -49 58 -124 77 -165 19 -41 51 -109 70 -150 50 -104 196 -419
214 -458 12 -27 19 -32 49 -32 19 -1 268 -1 553 -2 523 0 547 2 547 35 0 6 6
18 14 26 13 14 11 23 -11 71 -14 30 -42 93 -63 140 -21 47 -52 117 -70 155
-29 63 -162 356 -195 430 -7 17 -25 55 -38 85 -14 30 -38 84 -55 120 -35 77
-36 79 -197 435 -70 154 -144 318 -165 365 -21 47 -51 114 -68 150 -25 55
-108 240 -237 525 -15 33 -37 83 -50 110 -13 28 -42 93 -65 145 -24 52 -60
133 -81 178 -22 46 -39 85 -39 87 0 1 -22 51 -50 109 -28 58 -50 108 -50 110
0 4 -35 81 -111 244 -22 46 -39 86 -39 88 0 3 -14 35 -31 72 -40 86 -82 177
-102 222 -8 19 -42 94 -74 165 -33 72 -70 154 -84 184 -13 30 -76 169 -140
310 l-116 256 -334 5 c-184 3 -470 4 -636 2z"/>
<path d="M5021 5683 c-5 -10 -59 -130 -121 -268 -62 -137 -134 -297 -160 -355
-26 -58 -87 -193 -135 -300 -48 -107 -101 -224 -117 -260 -17 -36 -68 -150
-115 -255 -47 -104 -96 -215 -110 -245 -14 -30 -65 -143 -113 -250 -48 -107
-99 -220 -113 -250 -14 -30 -34 -75 -45 -100 -11 -25 -52 -117 -92 -204 l-72
-159 126 -276 c166 -368 405 -897 447 -993 19 -43 36 -78 39 -78 6 0 21 30
163 340 52 113 111 241 132 285 20 44 62 134 92 200 31 66 80 171 109 234 30
62 54 114 54 116 0 2 48 106 106 231 58 126 157 339 219 474 62 135 134 290
160 345 26 55 66 143 90 195 45 99 93 203 153 330 19 41 36 77 37 80 6 17 30
70 79 173 31 65 56 120 56 122 0 1 22 49 49 106 49 104 185 398 288 624 30 66
59 124 64 129 5 6 9 14 9 18 0 4 -286 8 -635 8 -594 0 -635 -1 -644 -17z"/>
</g>
</svg>
