<?xml version="1.0" encoding="utf-8"?>
<!-- Generator: Adobe Illustrator 23.0.3, SVG Export Plug-In . SVG Version: 6.00 Build 0)  -->
<svg version="1.1" id="Layer_1" xmlns="http://www.w3.org/2000/svg" xmlns:xlink="http://www.w3.org/1999/xlink" x="0px" y="0px"
	 viewBox="0 0 24 24" style="enable-background:new 0 0 24 24;" xml:space="preserve">
<path fill="none" d="M-2,2h24v24H-2V2z"/>
<path fill="#fff" d="M16,6H4C2.9,6,2,6.9,2,8v12c0,1.1,0.9,2,2,2h12c1.1,0,2-0.9,2-2V8C18,6.9,17.1,6,16,6z M16,20H4V8h12V20z"/>
<path fill="#fff" d="M20,18c1.1,0,2-0.9,2-2V4c0-1.1-0.9-2-2-2H8C6.9,2,6,2.9,6,4v2l2,0V4h12v12h-2l0,2H20z"/>
</svg>
